<svg width="50" height="40" viewBox="0 0 50 40" fill="none" xmlns="http://www.w3.org/2000/svg">
<path fill-rule="evenodd" clip-rule="evenodd" d="M17 27.6423C17 27.8374 17.1489 28 17.3359 28H19.6641C19.8473 28 20 27.8415 20 27.6423V21.4507L18.3092 23.2515C17.9504 23.6295 17.632 24.0193 17 24.0193V27.6423ZM21 27.6447C21 27.8385 21.1489 28 21.3359 28H23.6641C23.8473 28 24 27.8425 24 27.6447V23.5546L21 20.486V27.6447ZM25 27.7012C25 27.8642 25.1489 28 25.3359 28H27.6641C27.8473 28 28 27.8676 28 27.7012V20.8098L25.3359 23.6112C25.2328 23.7029 25.1183 23.7515 25 23.8194V27.7012ZM29 19.7899V27.6856C29 27.8571 29.1489 28 29.3359 28H31.6641C31.8473 28 32 27.8607 32 27.6856V16.6543L29 19.7899ZM33.3348 12C33.3152 12 33.2918 12 33.2723 12C32.1637 12.0526 31.059 12.1092 29.9504 12.1618C29.8021 12.1699 29.5991 12.178 29.4391 12.3438C29.3883 12.3964 29.3493 12.457 29.3181 12.5298C29.1541 12.8979 29.3844 13.1365 29.4937 13.2497L29.7709 13.541C29.9621 13.7432 30.1573 13.9454 30.3525 14.1436L24.6541 20.088L21.6445 16.9697C21.4649 16.7836 21.2229 16.6785 20.9653 16.6785C20.7076 16.6785 20.4695 16.7836 20.29 16.9697L16.2811 21.1193C15.9063 21.5076 15.9063 22.1345 16.2811 22.5227L16.4606 22.7088C16.6402 22.8948 16.8822 23 17.1398 23C17.3975 23 17.6356 22.8948 17.8151 22.7088L20.9653 19.4449L23.9749 22.5632C24.1544 22.7492 24.3964 22.8544 24.6541 22.8544C24.9117 22.8544 25.1498 22.7492 25.3333 22.5632L31.8905 15.7331L32.7453 16.6148C32.8468 16.7199 32.9874 16.8655 33.202 16.8655C33.2918 16.8655 33.3816 16.8413 33.4753 16.7887C33.5377 16.7523 33.5924 16.7118 33.6392 16.6633C33.8071 16.4894 33.8383 16.2669 33.8461 16.093C33.8773 15.3488 33.9125 14.6047 33.9476 13.8564L33.9984 12.7361C34.0101 12.5015 33.9593 12.3195 33.8383 12.1901C33.7251 12.0647 33.5534 12 33.3348 12Z" fill="white"/>
</svg>
